<svg id="Layer_4" data-name="Layer 4" xmlns="http://www.w3.org/2000/svg" viewBox="0 0 40.10168 8.56787"><defs><style>.cls-1{fill:#fff;}</style></defs><title>logo_white</title><path class="cls-1" d="M7131.47168,7083.14893l-.67188,4.188a3.36217,3.36217,0,0,1-.72607,1.78809,1.79286,1.79286,0,0,1-1.38624.59961,1.22935,1.22935,0,0,1-.792-.23975,1.0489,1.0489,0,0,1-.37207-.67822,2.47734,2.47734,0,0,1,.084-1.02588h-2.07568l2.18957-.6712.63782-3.96063h-2.26807l-.67187,4.188a3.36225,3.36225,0,0,1-.72607,1.78809,1.79288,1.79288,0,0,1-1.38624.59961,1.22938,1.22938,0,0,1-.792-.23975,1.049,1.049,0,0,1-.37207-.67822,2.47719,2.47719,0,0,1,.084-1.02588h-2.07569a4.2187,4.2187,0,0,0-.11425,1.98584,2.31264,2.31264,0,0,0,.88232,1.42236,3.09008,3.09008,0,0,0,1.90771.52784,5.09083,5.09083,0,0,0,2.35206-.522,2.60354,2.60354,0,0,0,.26965-.16088c.14038-.09473.046-.89673-.03113-1.26734a2.31268,2.31268,0,0,0,.88232,1.42236,3.09009,3.09009,0,0,0,1.90772.52784,5.09082,5.09082,0,0,0,2.35205-.522,4.2868,4.2868,0,0,0,1.65625-1.49414,5.74609,5.74609,0,0,0,.83984-2.30371l.68409-4.248Z" transform="translate(-7119.9657 -7083.14893)"/><path class="cls-1" d="M7137.11768,7085.03857a2.29659,2.29659,0,0,1,.75-.11377,2.05273,2.05273,0,0,1,1.21191.32374,1.05568,1.05568,0,0,1,.48.84033l2.124.01172a2.729,2.729,0,0,0-.41406-1.542,2.82145,2.82145,0,0,0-1.23-1.03759,4.50882,4.50882,0,0,0-1.90771-.37207,5.39583,5.39583,0,0,0-1.78223.29394,3.78953,3.78953,0,0,0-1.416.8457,2.34,2.34,0,0,0-.70214,1.29639,1.76908,1.76908,0,0,0,.60009,1.76367,4.68291,4.68291,0,0,0,2.4961.82813,3.52372,3.52372,0,0,1,1.2959.30615.52661.52661,0,0,1,.28808.59375,1.04466,1.04466,0,0,1-.624.67822,2.58879,2.58879,0,0,1-1.28418.19776,1.81292,1.81292,0,0,1-1.13379-.40186,1.18147,1.18147,0,0,1-.39014-.918h-2.14795a2.462,2.462,0,0,0,.30616,1.542,2.84626,2.84626,0,0,0,1.24169,1.12208,4.49909,4.49909,0,0,0,2.02832.41992,6.03554,6.03554,0,0,0,2.1001-.3418,3.70881,3.70881,0,0,0,1.47559-.94238,2.49523,2.49523,0,0,0,.66015-1.36768,1.73351,1.73351,0,0,0-.64209-1.686,5.55746,5.55746,0,0,0-2.82568-.85791l-.21631-.02442a2.14944,2.14944,0,0,1-.88769-.25781.46141.46141,0,0,1-.2041-.48584.7547.7547,0,0,1,.228-.4082A1.34794,1.34794,0,0,1,7137.11768,7085.03857Z" transform="translate(-7119.9657 -7083.14893)"/><path class="cls-1" d="M7149.26123,7083.71289a3.927,3.927,0,0,0-2.17773-.564,4.90534,4.90534,0,0,0-2.394.59375,5.17912,5.17912,0,0,0-1.77636,1.57226,5.2348,5.2348,0,0,0-.89356,2.12988,4.25315,4.25315,0,0,0,.126,2.18409,2.92258,2.92258,0,0,0,1.21191,1.52978,3.9814,3.9814,0,0,0,2.18994.55811,4.94539,4.94539,0,0,0,2.334-.564,5.23246,5.23246,0,0,0,1.79394-1.53613,5.127,5.127,0,0,0,.936-2.17188,4.36549,4.36549,0,0,0-.13819-2.18994A2.95049,2.95049,0,0,0,7149.26123,7083.71289Zm-.834,3.73193a3.209,3.209,0,0,1-.48,1.18213,2.80635,2.80635,0,0,1-.894.86963,2.23214,2.23214,0,0,1-1.18213.32422,1.74731,1.74731,0,0,1-1.06152-.312,1.58576,1.58576,0,0,1-.58838-.84619,2.44087,2.44087,0,0,1-.01806-1.21778,3.05893,3.05893,0,0,1,.46826-1.18212,2.87416,2.87416,0,0,1,.894-.876,2.18433,2.18433,0,0,1,1.16992-.33008,1.74755,1.74755,0,0,1,1.07422.31836,1.61754,1.61754,0,0,1,.58789.85791A2.5061,2.5061,0,0,1,7148.42725,7087.44482Z" transform="translate(-7119.9657 -7083.14893)"/><polygon class="cls-1" points="38.002 0 37.173 5.208 34.413 0 32.314 0 30.993 8.34 33.093 8.34 33.909 3.192 36.621 8.34 38.781 8.34 40.102 0 38.002 0"/></svg>