<svg id="Layer_4" data-name="Layer 4" xmlns="http://www.w3.org/2000/svg" viewBox="0 0 13.77404 8.56787"><defs><style>.cls-1{fill:#fff;}</style></defs><title>logo_icon</title><path class="cls-1" d="M7131.47168,7083.14893l-.67188,4.188a3.36217,3.36217,0,0,1-.72607,1.78809,1.79286,1.79286,0,0,1-1.38624.59961,1.22935,1.22935,0,0,1-.792-.23975,1.0489,1.0489,0,0,1-.37207-.67822,2.47734,2.47734,0,0,1,.084-1.02588h-2.07568l2.18957-.6712.63782-3.96063h-2.26807l-.67187,4.188a3.36225,3.36225,0,0,1-.72607,1.78809,1.79288,1.79288,0,0,1-1.38624.59961,1.22938,1.22938,0,0,1-.792-.23975,1.049,1.049,0,0,1-.37207-.67822,2.47719,2.47719,0,0,1,.084-1.02588h-2.07569a4.2187,4.2187,0,0,0-.11425,1.98584,2.31264,2.31264,0,0,0,.88232,1.42236,3.09008,3.09008,0,0,0,1.90771.52784,5.09083,5.09083,0,0,0,2.35206-.522,2.60354,2.60354,0,0,0,.26965-.16088c.14038-.09473.046-.89673-.03113-1.26734a2.31268,2.31268,0,0,0,.88232,1.42236,3.09009,3.09009,0,0,0,1.90772.52784,5.09082,5.09082,0,0,0,2.35205-.522,4.2868,4.2868,0,0,0,1.65625-1.49414,5.74609,5.74609,0,0,0,.83984-2.30371l.68409-4.248Z" transform="translate(-7119.9657 -7083.14893)"/></svg>